<mxfile host="app.diagrams.net" modified="2021-05-14T06:18:44.700Z" agent="5.0 (Macintosh; Intel Mac OS X 10_14_6) AppleWebKit/537.36 (KHTML, like Gecko) Chrome/90.0.4430.212 Safari/537.36" etag="jY3FZBKnnxJQ-8IPLwLY" version="14.6.13" type="github">
  <diagram id="kgpKYQtTHZ0yAKxKKP6v" name="Page-1">
    <mxGraphModel dx="2036" dy="615" grid="1" gridSize="10" guides="1" tooltips="1" connect="1" arrows="1" fold="1" page="1" pageScale="1" pageWidth="850" pageHeight="1100" math="0" shadow="0">
      <root>
        <mxCell id="0" />
        <mxCell id="1" parent="0" />
        <mxCell id="8hrVhE37rYxSTI8BDwuA-29" value="Client Node&lt;br&gt;&lt;br&gt;&lt;br&gt;&lt;br&gt;" style="rounded=0;whiteSpace=wrap;html=1;" vertex="1" parent="1">
          <mxGeometry x="-60" y="60" width="290" height="70" as="geometry" />
        </mxCell>
        <mxCell id="8hrVhE37rYxSTI8BDwuA-28" value="Server Node&lt;br&gt;&lt;br&gt;&lt;br&gt;&lt;br&gt;&lt;br&gt;" style="rounded=0;whiteSpace=wrap;html=1;" vertex="1" parent="1">
          <mxGeometry x="270" y="60" width="280" height="70" as="geometry" />
        </mxCell>
        <mxCell id="3nuBFxr9cyL0pnOWT2aG-1" value="sshx-client" style="shape=umlLifeline;perimeter=lifelinePerimeter;container=1;collapsible=0;recursiveResize=0;rounded=0;shadow=0;strokeWidth=1;" parent="1" vertex="1">
          <mxGeometry x="120" y="80" width="100" height="650" as="geometry" />
        </mxCell>
        <mxCell id="3nuBFxr9cyL0pnOWT2aG-2" value="" style="points=[];perimeter=orthogonalPerimeter;rounded=0;shadow=0;strokeWidth=1;" parent="3nuBFxr9cyL0pnOWT2aG-1" vertex="1">
          <mxGeometry x="45" y="70" width="10" height="580" as="geometry" />
        </mxCell>
        <mxCell id="3nuBFxr9cyL0pnOWT2aG-5" value="signal-server" style="shape=umlLifeline;perimeter=lifelinePerimeter;container=1;collapsible=0;recursiveResize=0;rounded=0;shadow=0;strokeWidth=1;" parent="1" vertex="1">
          <mxGeometry x="580" y="80" width="100" height="640" as="geometry" />
        </mxCell>
        <mxCell id="3nuBFxr9cyL0pnOWT2aG-6" value="" style="points=[];perimeter=orthogonalPerimeter;rounded=0;shadow=0;strokeWidth=1;" parent="3nuBFxr9cyL0pnOWT2aG-5" vertex="1">
          <mxGeometry x="45" y="80" width="10" height="560" as="geometry" />
        </mxCell>
        <mxCell id="3nuBFxr9cyL0pnOWT2aG-8" value="/push/${clt_key}_server&#xa;source: ${clt_id}&#xa;sdp: offer" style="verticalAlign=bottom;endArrow=block;shadow=0;strokeWidth=1;" parent="1" source="3nuBFxr9cyL0pnOWT2aG-2" target="3nuBFxr9cyL0pnOWT2aG-5" edge="1">
          <mxGeometry x="-0.714" relative="1" as="geometry">
            <mxPoint x="275" y="160" as="sourcePoint" />
            <mxPoint x="620" y="270" as="targetPoint" />
            <Array as="points">
              <mxPoint x="175" y="290" />
            </Array>
            <mxPoint as="offset" />
          </mxGeometry>
        </mxCell>
        <mxCell id="8hrVhE37rYxSTI8BDwuA-1" value="listen 2222" style="edgeStyle=orthogonalEdgeStyle;rounded=0;orthogonalLoop=1;jettySize=auto;html=1;" edge="1" parent="1" source="3nuBFxr9cyL0pnOWT2aG-1">
          <mxGeometry relative="1" as="geometry">
            <mxPoint x="170" y="180" as="targetPoint" />
            <Array as="points">
              <mxPoint x="230" y="160" />
              <mxPoint x="230" y="180" />
            </Array>
          </mxGeometry>
        </mxCell>
        <mxCell id="8hrVhE37rYxSTI8BDwuA-2" value="ssh-client" style="rounded=0;whiteSpace=wrap;html=1;" vertex="1" parent="1">
          <mxGeometry x="-50" y="80" width="110" height="40" as="geometry" />
        </mxCell>
        <mxCell id="8hrVhE37rYxSTI8BDwuA-3" value="" style="endArrow=none;dashed=1;html=1;entryX=0.427;entryY=1.05;entryDx=0;entryDy=0;entryPerimeter=0;" edge="1" parent="1" target="8hrVhE37rYxSTI8BDwuA-2">
          <mxGeometry width="50" height="50" relative="1" as="geometry">
            <mxPoint x="-3" y="400" as="sourcePoint" />
            <mxPoint x="450" y="290" as="targetPoint" />
          </mxGeometry>
        </mxCell>
        <mxCell id="8hrVhE37rYxSTI8BDwuA-5" value="" style="points=[];perimeter=orthogonalPerimeter;rounded=0;shadow=0;strokeWidth=1;" vertex="1" parent="1">
          <mxGeometry x="-10" y="150" width="10" height="590" as="geometry" />
        </mxCell>
        <mxCell id="8hrVhE37rYxSTI8BDwuA-8" value="/pull/${clt_id}_client" style="verticalAlign=bottom;endArrow=block;shadow=0;strokeWidth=1;entryX=1.4;entryY=0.28;entryDx=0;entryDy=0;entryPerimeter=0;" edge="1" parent="1" target="3nuBFxr9cyL0pnOWT2aG-6">
          <mxGeometry x="-0.6696" y="-2" relative="1" as="geometry">
            <mxPoint x="170" y="317" as="sourcePoint" />
            <mxPoint x="610" y="320" as="targetPoint" />
            <Array as="points" />
            <mxPoint as="offset" />
          </mxGeometry>
        </mxCell>
        <mxCell id="8hrVhE37rYxSTI8BDwuA-9" value="sshx-server" style="shape=umlLifeline;perimeter=lifelinePerimeter;container=1;collapsible=0;recursiveResize=0;rounded=0;shadow=0;strokeWidth=1;" vertex="1" parent="1">
          <mxGeometry x="280" y="80" width="100" height="640" as="geometry" />
        </mxCell>
        <mxCell id="8hrVhE37rYxSTI8BDwuA-10" value="" style="points=[];perimeter=orthogonalPerimeter;rounded=0;shadow=0;strokeWidth=1;" vertex="1" parent="8hrVhE37rYxSTI8BDwuA-9">
          <mxGeometry x="45" y="70" width="10" height="570" as="geometry" />
        </mxCell>
        <mxCell id="8hrVhE37rYxSTI8BDwuA-11" value="ssh-server" style="shape=umlLifeline;perimeter=lifelinePerimeter;container=1;collapsible=0;recursiveResize=0;rounded=0;shadow=0;strokeWidth=1;" vertex="1" parent="1">
          <mxGeometry x="440" y="80" width="100" height="640" as="geometry" />
        </mxCell>
        <mxCell id="8hrVhE37rYxSTI8BDwuA-12" value="" style="points=[];perimeter=orthogonalPerimeter;rounded=0;shadow=0;strokeWidth=1;" vertex="1" parent="8hrVhE37rYxSTI8BDwuA-11">
          <mxGeometry x="45" y="70" width="10" height="570" as="geometry" />
        </mxCell>
        <mxCell id="8hrVhE37rYxSTI8BDwuA-13" value="/pull/${svr_id}_server" style="verticalAlign=bottom;endArrow=block;shadow=0;strokeWidth=1;exitX=0.9;exitY=0.028;exitDx=0;exitDy=0;exitPerimeter=0;" edge="1" parent="1" source="8hrVhE37rYxSTI8BDwuA-10">
          <mxGeometry relative="1" as="geometry">
            <mxPoint x="186" y="311.91999999999996" as="sourcePoint" />
            <mxPoint x="626" y="166" as="targetPoint" />
            <Array as="points" />
          </mxGeometry>
        </mxCell>
        <mxCell id="8hrVhE37rYxSTI8BDwuA-14" value="" style="endArrow=classic;html=1;" edge="1" parent="1" source="3nuBFxr9cyL0pnOWT2aG-5">
          <mxGeometry width="50" height="50" relative="1" as="geometry">
            <mxPoint x="610" y="342" as="sourcePoint" />
            <mxPoint x="340" y="342" as="targetPoint" />
          </mxGeometry>
        </mxCell>
        <mxCell id="8hrVhE37rYxSTI8BDwuA-15" value="offer" style="edgeLabel;html=1;align=center;verticalAlign=middle;resizable=0;points=[];" vertex="1" connectable="0" parent="8hrVhE37rYxSTI8BDwuA-14">
          <mxGeometry x="0.131" y="-1" relative="1" as="geometry">
            <mxPoint as="offset" />
          </mxGeometry>
        </mxCell>
        <mxCell id="8hrVhE37rYxSTI8BDwuA-16" value="connect 22" style="endArrow=classic;html=1;" edge="1" parent="1" source="8hrVhE37rYxSTI8BDwuA-9">
          <mxGeometry width="50" height="50" relative="1" as="geometry">
            <mxPoint x="350" y="365" as="sourcePoint" />
            <mxPoint x="480" y="365" as="targetPoint" />
          </mxGeometry>
        </mxCell>
        <mxCell id="8hrVhE37rYxSTI8BDwuA-17" value="ssh data stream" style="endArrow=classic;startArrow=classic;html=1;fillColor=#f8cecc;strokeColor=#b85450;" edge="1" parent="1">
          <mxGeometry width="50" height="50" relative="1" as="geometry">
            <mxPoint x="340" y="450" as="sourcePoint" />
            <mxPoint x="481" y="450" as="targetPoint" />
            <Array as="points">
              <mxPoint x="410" y="450" />
            </Array>
          </mxGeometry>
        </mxCell>
        <mxCell id="8hrVhE37rYxSTI8BDwuA-19" value="" style="endArrow=classic;html=1;" edge="1" parent="1">
          <mxGeometry width="50" height="50" relative="1" as="geometry">
            <mxPoint x="334" y="508" as="sourcePoint" />
            <mxPoint x="625" y="508" as="targetPoint" />
          </mxGeometry>
        </mxCell>
        <mxCell id="8hrVhE37rYxSTI8BDwuA-20" value="/push/$(clt_id)_client&lt;br&gt;source: ${svr_id}&lt;br&gt;sdp: answer" style="edgeLabel;html=1;align=center;verticalAlign=middle;resizable=0;points=[];" vertex="1" connectable="0" parent="8hrVhE37rYxSTI8BDwuA-19">
          <mxGeometry x="-0.3625" y="-1" relative="1" as="geometry">
            <mxPoint x="-8" y="-21" as="offset" />
          </mxGeometry>
        </mxCell>
        <mxCell id="8hrVhE37rYxSTI8BDwuA-22" value="new PeerConn" style="edgeStyle=orthogonalEdgeStyle;rounded=0;orthogonalLoop=1;jettySize=auto;html=1;" edge="1" parent="1">
          <mxGeometry relative="1" as="geometry">
            <mxPoint x="340" y="385" as="sourcePoint" />
            <mxPoint x="340.5" y="415" as="targetPoint" />
            <Array as="points">
              <mxPoint x="400.5" y="385" />
              <mxPoint x="400.5" y="415" />
            </Array>
          </mxGeometry>
        </mxCell>
        <mxCell id="8hrVhE37rYxSTI8BDwuA-23" value="answer" style="endArrow=classic;html=1;exitX=0.48;exitY=0.7;exitDx=0;exitDy=0;exitPerimeter=0;entryX=0.47;entryY=0.694;entryDx=0;entryDy=0;entryPerimeter=0;" edge="1" parent="1" source="3nuBFxr9cyL0pnOWT2aG-5" target="3nuBFxr9cyL0pnOWT2aG-1">
          <mxGeometry width="50" height="50" relative="1" as="geometry">
            <mxPoint x="400" y="440" as="sourcePoint" />
            <mxPoint x="450" y="390" as="targetPoint" />
          </mxGeometry>
        </mxCell>
        <mxCell id="8hrVhE37rYxSTI8BDwuA-24" value="new PeerConn" style="edgeStyle=orthogonalEdgeStyle;rounded=0;orthogonalLoop=1;jettySize=auto;html=1;" edge="1" parent="1">
          <mxGeometry relative="1" as="geometry">
            <mxPoint x="170" y="200" as="sourcePoint" />
            <mxPoint x="170.5" y="230" as="targetPoint" />
            <Array as="points">
              <mxPoint x="230.5" y="200" />
              <mxPoint x="230.5" y="230" />
            </Array>
          </mxGeometry>
        </mxCell>
        <mxCell id="8hrVhE37rYxSTI8BDwuA-25" value="ssh data stream" style="endArrow=classic;startArrow=classic;html=1;fillColor=#f8cecc;strokeColor=#B85450;" edge="1" parent="1">
          <mxGeometry width="50" height="50" relative="1" as="geometry">
            <mxPoint y="240" as="sourcePoint" />
            <mxPoint x="160" y="240" as="targetPoint" />
            <Array as="points" />
          </mxGeometry>
        </mxCell>
        <mxCell id="8hrVhE37rYxSTI8BDwuA-26" value="&lt;span style=&quot;font-size: 12px ; text-align: left&quot;&gt;ssh -p 2222 linechina@127.0.0.1&lt;/span&gt;" style="endArrow=classic;html=1;exitX=1.1;exitY=0.069;exitDx=0;exitDy=0;exitPerimeter=0;" edge="1" parent="1" source="8hrVhE37rYxSTI8BDwuA-5" target="3nuBFxr9cyL0pnOWT2aG-2">
          <mxGeometry x="-0.1585" y="11" width="50" height="50" relative="1" as="geometry">
            <mxPoint x="400" y="400" as="sourcePoint" />
            <mxPoint x="450" y="350" as="targetPoint" />
            <mxPoint as="offset" />
          </mxGeometry>
        </mxCell>
        <mxCell id="8hrVhE37rYxSTI8BDwuA-27" value="webrtc data stream" style="endArrow=classic;startArrow=classic;html=1;fillColor=#f8cecc;strokeColor=#b85450;" edge="1" parent="1">
          <mxGeometry width="50" height="50" relative="1" as="geometry">
            <mxPoint x="180" y="560" as="sourcePoint" />
            <mxPoint x="321" y="560" as="targetPoint" />
            <Array as="points">
              <mxPoint x="250" y="560" />
            </Array>
          </mxGeometry>
        </mxCell>
      </root>
    </mxGraphModel>
  </diagram>
</mxfile>
